<?xml version="1.0" encoding="UTF-8" standalone="no"?>
<!-- Created with Inkscape (http://www.inkscape.org/) -->

<svg
   version="1.1"
   id="svg52"
   width="403.04401"
   height="67.666504"
   viewBox="0 0 403.04401 67.666504"
   sodipodi:docname="Logo.eps"
   xmlns:inkscape="http://www.inkscape.org/namespaces/inkscape"
   xmlns:sodipodi="http://sodipodi.sourceforge.net/DTD/sodipodi-0.dtd"
   xmlns="http://www.w3.org/2000/svg"
   xmlns:svg="http://www.w3.org/2000/svg">
  <defs
     id="defs56" />
  <sodipodi:namedview
     id="namedview54"
     pagecolor="#ffffff"
     bordercolor="#000000"
     borderopacity="0.25"
     inkscape:showpageshadow="2"
     inkscape:pageopacity="0.0"
     inkscape:pagecheckerboard="0"
     inkscape:deskcolor="#d1d1d1"
     showgrid="false" />
  <g
     id="g60"
     inkscape:groupmode="layer"
     inkscape:label="Page 1"
     transform="matrix(1.3333333,0,0,-1.3333333,-517.67731,6017.4264)">
    <g
       id="g62"
       transform="scale(0.1)">
      <path
         d="m 3971.47,45039.3 v -116.8 l 303.31,-0.1 c 35.6,0 64.45,-28.8 64.45,-64.4 v -89.3 l -145.52,-145.5 h -311.13 v 91.3 h 367.73 v 116.6 h -303.27 c -35.6,0 -64.46,28.8 -64.46,64.4 v 89.6 l 145.53,145.6 h 311.12 v -91.4 h -367.76"
         style="fill:#fffffe;fill-opacity:1;fill-rule:nonzero;stroke:none"
         id="path124"
         inkscape:export-filename="path124.svg"
         inkscape:export-xdpi="11.322981"
         inkscape:export-ydpi="11.322981" />
      <path
         d="m 4748.11,44888.5 h -263.49 v -172.9 h 263.49 z m 88.91,7.5 v -271.8 h -359.96 c -46.28,0 -83.8,37.6 -83.8,83.8 v 126.3 l 145.52,145.5 h 214.45 c 46.28,0 83.79,-37.5 83.79,-83.8"
         style="fill:#fffffe;fill-opacity:1;fill-rule:nonzero;stroke:none"
         id="path126" />
      <path
         d="m 5534.55,44897 v -271.7 h -88.91 v 264.2 H 5263.5 v -264.2 h -0.96 v -1.1 h -88.91 v 264.3 h -182.14 v -264.3 h -88.91 v 210.1 l 145.53,145.5 h 130.64 c 37.11,0 69.79,-24.4 80.32,-60 l 61.04,61 h 130.64 c 46.28,0 83.8,-37.5 83.8,-83.8"
         style="fill:#fffffe;fill-opacity:1;fill-rule:nonzero;stroke:none"
         id="path128" />
      <path
         d="m 5953.07,44888.5 h -263.48 v -172.9 h 263.48 z m 88.91,7.5 v -271.8 h -359.97 c -46.27,0 -83.79,37.6 -83.79,83.8 v 126.3 l 145.53,145.5 h 214.43 c 46.29,0 83.8,-37.5 83.8,-83.8"
         style="fill:#fffffe;fill-opacity:1;fill-rule:nonzero;stroke:none"
         id="path130" />
      <path
         d="m 6746.06,44979.8 v -210 l -145.52,-145.6 h -158.48 c -14.84,0 -29.07,5.9 -39.57,16.4 -10.5,10.5 -16.4,24.7 -16.4,39.6 l -55.95,-56 h -130.65 c -46.27,0 -83.79,37.6 -83.79,83.8 v 272.2 h 91.35 v -264.6 h 179.04 v 264.6 h 91.37 v -264.6 h 179.69 v 264.2 h 88.91"
         style="fill:#fffffe;fill-opacity:1;fill-rule:nonzero;stroke:none"
         id="path132" />
      <path
         d="m 6815.24,45039.9 v 90.2 h 90.17 v -90.2 z m -1.18,-415.7 v 355.6 h 91.35 v -355.6 h -91.35"
         style="fill:#fffffe;fill-opacity:1;fill-rule:nonzero;stroke:none"
         id="path134" />
    </g>
  </g>
</svg>
