<?xml version="1.0" encoding="UTF-8" standalone="no"?>
<!-- Created with Inkscape (http://www.inkscape.org/) -->

<svg
   version="1.1"
   id="svg52"
   width="403.04016"
   height="67.666504"
   viewBox="0 0 403.04016 67.666504"
   sodipodi:docname="Logo.eps"
   xmlns:inkscape="http://www.inkscape.org/namespaces/inkscape"
   xmlns:sodipodi="http://sodipodi.sourceforge.net/DTD/sodipodi-0.dtd"
   xmlns="http://www.w3.org/2000/svg"
   xmlns:svg="http://www.w3.org/2000/svg">
  <defs
     id="defs56" />
  <sodipodi:namedview
     id="namedview54"
     pagecolor="#ffffff"
     bordercolor="#000000"
     borderopacity="0.25"
     inkscape:showpageshadow="2"
     inkscape:pageopacity="0.0"
     inkscape:pagecheckerboard="0"
     inkscape:deskcolor="#d1d1d1"
     showgrid="false" />
  <g
     id="g60"
     inkscape:groupmode="layer"
     inkscape:label="Page 1"
     transform="matrix(1.3333333,0,0,-1.3333333,-1984.3466,6017.4264)">
    <g
       id="g62"
       transform="scale(0.1)">
      <path
         d="m 14971.5,45039.3 v -116.8 l 303.3,-0.1 c 35.6,0 64.4,-28.8 64.4,-64.4 v -89.3 l -145.5,-145.5 h -311.1 v 91.3 h 367.7 v 116.6 H 14947 c -35.6,0 -64.4,28.8 -64.4,64.4 v 89.6 l 145.5,145.6 h 311.1 v -91.4 h -367.7"
         style="fill:#100f0d;fill-opacity:1;fill-rule:nonzero;stroke:none"
         id="path138" />
      <path
         d="m 15748.1,44888.5 h -263.5 v -172.9 h 263.5 z m 88.9,7.5 v -271.8 h -359.9 c -46.3,0 -83.8,37.6 -83.8,83.8 v 126.3 l 145.5,145.5 h 214.4 c 46.3,0 83.8,-37.5 83.8,-83.8"
         style="fill:#100f0d;fill-opacity:1;fill-rule:nonzero;stroke:none"
         id="path140" />
      <path
         d="m 16534.6,44897 v -271.7 h -89 v 264.2 h -182.1 v -264.2 h -1 v -1.1 h -88.9 v 264.3 h -182.1 v -264.3 h -88.9 v 210.1 l 145.5,145.5 h 130.7 c 37.1,0 69.7,-24.4 80.3,-60 l 61,61 h 130.7 c 46.2,0 83.8,-37.5 83.8,-83.8"
         style="fill:#100f0d;fill-opacity:1;fill-rule:nonzero;stroke:none"
         id="path142" />
      <path
         d="m 16953.1,44888.5 h -263.5 v -172.9 h 263.5 z m 88.9,7.5 v -271.8 h -360 c -46.3,0 -83.8,37.6 -83.8,83.8 v 126.3 l 145.6,145.5 h 214.4 c 46.3,0 83.8,-37.5 83.8,-83.8"
         style="fill:#100f0d;fill-opacity:1;fill-rule:nonzero;stroke:none"
         id="path144" />
      <path
         d="m 17746.1,44979.8 v -210 l -145.6,-145.6 h -158.4 c -14.9,0 -29.1,5.9 -39.6,16.4 -10.5,10.5 -16.4,24.7 -16.4,39.6 l -56,-56 h -130.6 c -46.3,0 -83.8,37.6 -83.8,83.8 v 272.2 h 91.4 v -264.6 h 179 v 264.6 h 91.4 v -264.6 h 179.6 v 264.2 h 89"
         style="fill:#100f0d;fill-opacity:1;fill-rule:nonzero;stroke:none"
         id="path146" />
      <path
         d="m 17815.2,45039.9 v 90.2 h 90.2 v -90.2 z m -1.1,-415.7 v 355.6 h 91.3 v -355.6 h -91.3"
         style="fill:#100f0d;fill-opacity:1;fill-rule:nonzero;stroke:none"
         id="path148"
         inkscape:export-filename="samawi-blacksvg.svg"
         inkscape:export-xdpi="11.322981"
         inkscape:export-ydpi="11.322981" />
    </g>
  </g>
</svg>
